# Blender 4.0.2
# www.blender.org
mtllib knob.mtl
o Cube
v 0.182448 1.000000 -0.204946
v 0.182448 -1.000000 -0.204946
v 0.182448 1.000000 0.204946
v 0.182448 -1.000000 0.204946
v -0.182448 1.000000 -0.204946
v -0.182448 -1.000000 -0.204946
v -0.182448 1.000000 0.204946
v -0.182448 -1.000000 0.204946
vn -0.0000 1.0000 -0.0000
vn -0.0000 -0.0000 1.0000
vn -1.0000 -0.0000 -0.0000
vn -0.0000 -1.0000 -0.0000
vn 1.0000 -0.0000 -0.0000
vn -0.0000 -0.0000 -1.0000
vt 0.534189 0.703901
vt 0.528898 0.711294
vt 0.465172 0.709880
vt 0.463139 0.702299
vt 0.503971 0.315761
vt 0.500922 0.682097
vt 0.450823 0.696639
vt 0.466709 0.344584
vt 0.375000 0.000000
vt 0.625000 0.000000
vt 0.625000 0.250000
vt 0.375000 0.250000
vt 0.125000 0.500000
vt 0.375000 0.500000
vt 0.375000 0.750000
vt 0.125000 0.750000
vt 0.530963 0.313411
vt 0.474162 0.311078
vt 0.625000 0.500000
s 0
usemtl Material
f 1/1/1 5/2/1 7/3/1 3/4/1
f 4/5/2 3/6/2 7/7/2 8/8/2
f 8/9/3 7/10/3 5/11/3 6/12/3
f 6/13/4 2/14/4 4/15/4 8/16/4
f 2/17/5 1/1/5 3/4/5 4/18/5
f 6/12/6 5/11/6 1/19/6 2/14/6
